<svg xmlns="http://www.w3.org/2000/svg" viewBox="0 0 64 64" width="64" height="64" role="img" aria-label="Le Barbu — crowned king of hearts">
  <defs>
    <radialGradient id="bg" cx="50%" cy="16%" r="95%">
      <stop offset="0%" stop-color="#134e4a" />
      <stop offset="62%" stop-color="#0f172a" />
    </radialGradient>
    <linearGradient id="heart" x1="0" y1="0" x2="0" y2="1">
      <stop offset="0%" stop-color="#fb7185" />
      <stop offset="100%" stop-color="#e11d48" />
    </linearGradient>
  </defs>
  <rect width="64" height="64" rx="14" fill="url(#bg)" />
  <path
    d="M32 54 C 28 54, 8 39, 8 24 C 8 16, 14 12, 21 12 C 26 12, 30 15, 32 19 C 34 15, 38 12, 43 12 C 50 12, 56 16, 56 24 C 56 39, 36 54, 32 54 Z"
    fill="url(#heart)" />
  <path
    d="M20 17 L18 5 L26 11 L32 2 L38 11 L46 5 L44 17 Z"
    fill="#fbbf24" stroke="#0f172a" stroke-width="1.2" stroke-linejoin="round" />
  <circle cx="18" cy="5" r="2" fill="#fbbf24" />
  <circle cx="32" cy="2" r="2.2" fill="#fde68a" />
  <circle cx="46" cy="5" r="2" fill="#fbbf24" />
</svg>
